{"title":"Louder Than Words 2013 HDRip XviD titler","uid":10474709,"size":982010993,"categoryP":"video","categoryS":"movies","magnet":"?xt=urn:btih:bff3df64c5673885f6ff960158d6579610515d15&amp;dn=Louder+Than+Words+2013+HDRip+XviD+titler&amp;tr=udp%3A%2F%2Ftracker.openbittorrent.com%3A80&amp;tr=udp%3A%2F%2Fopen.demonii.com%3A1337&amp;tr=udp%3A%2F%2Ftracker.coppersurfer.tk%3A6969&amp;tr=udp%3A%2F%2Fexodus.desync.com%3A6969","seeders":1,"leechers":0,"uploader":"movieZ.freak","files":5,"time":1404317040,"description":"SOURCE: Louder Than Words 2013 720p WEB-DL DD 5.1 H264 - RARBG\n\n\n\n &lt;a href=&quot;\nhttp://www.imdb.com/title/tt1641401/&quot; rel=&quot;nofollow&quot; target=&quot;_NEW&quot;&gt;\nhttp://www.imdb.com/title/tt1641401/&lt;/a&gt;\n\n\n\n &lt;a href=&quot;\nhttp://www.rottentomatoes.com/m/louder_than_words/&quot; rel=&quot;nofollow&quot; target=&quot;_NEW&quot;&gt;\nhttp://www.rottentomatoes.com/m/louder_than_words/&lt;/a&gt;\n\n\n\n &lt;a href=&quot;\nhttps://blogcritics.org/movie-review-louder-than-words/&quot; rel=&quot;nofollow&quot; target=&quot;_NEW&quot;&gt;\nhttps://blogcritics.org/movie-review-louder-than-words/&lt;/a&gt;\n\n\n\n\n\n- SAMPLE: Yes\n\n\n- SUBTITLE: English\n\n\n- LANGUAGE / AUDIO: English\n\n\n\n\n\nSCREENSHOTS:\n-------------------    &lt;a href=&quot;\nhttp://someimage.com/wgPQ&quot; rel=&quot;nofollow&quot; target=&quot;_NEW&quot;&gt;\nhttp://someimage.com/wgPQ&lt;/a&gt;\n\n\n\n\nDIRECTOR: Anthony Fabian\n\n\n\nCAST: David Duchovny, Hope Davis, Timothy Hutton, Adelaide Kane, Craig Bierko, Victoria Tennant, Ben Rosenfield, Morgan Griffin,...\n\n\nPLOT:\n-----------\nThis inspiring film, based on a true story, finds a couple, John (David Duchovny) and Brenda (Hope Davis) trying to put their life together after the tragic death of their young daughter, Maria (Olivia Steele-Falconer). As they deal with their numbing grief, they discover a way to honor their daughter's wish for health and well-being for all children. With the help of their community, led by good friend Bruce (Timothy Hutton), they establish a children's hospital called the Maria Fareri Children's Hospital... a state of the art health facility that brings the whole family into the healing process. Instead of being torn apart by their tragedy, John and Brenda celebrate their very special daughter and help thousands of children and their families.\n\n\n************************************\n\n- Duration: 1h 33mn\n\n- Bit rate: 1248 Kbps\n\n- Res: 720 x 298\n\n- AR: 2.40:1\n\n- FPS: 23.976 fps\n\n- Audio: AC3, 2 channels, 128 Kbps\n\n************************************\n\n\nGeneral\n---------------\nFormat : AVI\nFormat/Info : Audio Video Interleave\nFile size : 923 MiB\nDuration : 1h 33mn\nOverall bit rate : 1386 Kbps\nWriting library : VirtualDub build 35491\n\n\nVideo\n----------\nFormat : MPEG-4 Visual\nFormat profile : Advanced Simple@L5\nFormat settings, BVOP : 2\nFormat settings, QPel : No\nFormat settings, GMC : No warppoints\nFormat settings, Matrix : Default (H.263)\nCodec ID : XVID\nCodec ID/Hint : XviD\nDuration : 1h 33mn\nBit rate : 1248 Kbps\nWidth : 720 pixels\nHeight : 298 pixels\nDisplay aspect ratio : 2.40:1\nFrame rate : 23.976 fps\nColor space : YUV\nChroma subsampling : 4:2:0\nBit depth : 8 bits\nScan type : Progressive\nCompression mode : Lossy\nBits/(Pixel*Frame) : 0.243\nStream size : 831 MiB (90%)\nWriting library : XviD 65\n\n\nAudio\n------------\nFormat : AC-3\nFormat/Info : Audio Coding 3\nMode extension : CM (complete main)\nFormat settings, Endianness : Big\nCodec ID : 2000\nDuration : 1h 33mn\nBit rate mode : Constant\nBit rate : 128 Kbps\nChannel(s) : 2 channels\nChannel positions : Front: L R\nSampling rate : 48.0 KHz\nBit depth : 16 bits\nCompression mode : Lossy\nStream size : 85.3 MiB (9%)\nAlignment : Aligned on interleaves\nInterleave, duration : 42 ms (1.00 video frame)\nInterleave, preload duration : 512 ms","torrent":{"xt":"urn:btih:bff3df64c5673885f6ff960158d6579610515d15","amp;dn":"Louder+Than+Words+2013+HDRip+XviD+titler","amp;tr":["udp%3A%2F%2Ftracker.openbittorrent.com%3A80","udp%3A%2F%2Fopen.demonii.com%3A1337","udp%3A%2F%2Ftracker.coppersurfer.tk%3A6969","udp%3A%2F%2Fexodus.desync.com%3A6969"],"infoHash":"bff3df64c5673885f6ff960158d6579610515d15","infoHashBuffer":{"type":"Buffer","data":[191,243,223,100,197,103,56,133,246,255,150,1,88,214,87,150,16,81,93,21]},"announce":[],"urlList":[]}}